<svg width="29" height="24" viewBox="0 0 29 24" fill="none" xmlns="http://www.w3.org/2000/svg">
<path d="M26.1 0H5.80002C4.20067 0 2.90002 1.30065 2.90002 2.9V10.15H5.80002V5.8L15.08 12.76C15.3311 12.948 15.6363 13.0496 15.95 13.0496C16.2637 13.0496 16.5689 12.948 16.82 12.76L26.1 5.8V18.85H14.5V21.75H26.1C27.6994 21.75 29 20.4494 29 18.85V2.9C29 1.30065 27.6994 0 26.1 0ZM15.95 9.7875L6.76572 2.9H25.1343L15.95 9.7875Z" fill="#BCBCBC"/>
<path d="M0 11.6H10.15V14.5H0V11.6ZM2.9 15.95H11.6V18.85H2.9V15.95ZM7.25 20.3H13.05V23.2H7.25V20.3Z" fill="#BCBCBC"/>
</svg>